<svg width="161" height="51" viewBox="0 0 161 51" fill="none" xmlns="http://www.w3.org/2000/svg">
<mask id="mask0_3394_8289" style="mask-type:luminance" maskUnits="userSpaceOnUse" x="0" y="0" width="161" height="51">
<path d="M161 0H0V50.0674H161V0Z" fill="white"/>
</mask>
<g mask="url(#mask0_3394_8289)">
<mask id="mask1_3394_8289" style="mask-type:luminance" maskUnits="userSpaceOnUse" x="-242" y="-344" width="645" height="739">
<path d="M-241.5 -343.797H402.5V394.039H-241.5V-343.797Z" fill="white"/>
</mask>
<g mask="url(#mask1_3394_8289)">
<path d="M0 39.5533H6.52161V27.8941C6.52161 25.5528 7.69714 24.2758 9.27132 24.2758C10.8148 24.2758 11.8779 25.5528 11.8779 27.8941V39.5533H18.3995V25.4701C18.3995 20.5746 16.028 17.5475 12.0824 17.5475C9.43487 17.5475 7.72781 19.1793 6.52161 20.9649V10.5H0V39.5533Z" fill="#F5F5F7"/>
<path d="M29.4044 35.2944C28.0653 35.2944 27.1044 34.4193 27.1044 32.9413V32.8703C27.1044 31.2858 28.1982 30.1979 30.0892 30.1979C31.0501 30.1979 31.9803 30.4344 32.6345 30.7537V31.747C32.6345 33.8991 31.2954 35.2944 29.4044 35.2944ZM27.0737 40.0243C29.5066 40.0243 31.2545 38.9482 32.5221 37.3164V39.5513H38.9823V27.1708C38.9823 24.1555 38.3997 21.9206 36.9891 20.3243C35.5069 18.6097 33.2478 17.6992 29.9155 17.6992C26.7262 17.6992 24.4978 18.3851 22.4023 19.3783L23.7414 24.7113C25.3871 23.9545 26.9 23.517 28.8524 23.517C31.3568 23.517 32.5629 24.7822 32.5629 27.0171V27.3718C31.4999 26.9343 29.8235 26.5323 28.1062 26.5323C23.7414 26.5323 20.8281 28.8499 20.8281 33.3078V33.3788C20.8281 37.683 23.5369 40.0243 27.0737 40.0243Z" fill="#F5F5F7"/>
<path d="M49.6791 40.0292C54.2074 40.0292 57.2638 37.5579 57.2638 32.828V32.7452C57.2638 28.5711 54.3505 27.1048 50.6809 25.9105C48.7285 25.2365 47.6552 24.8345 47.6552 23.9949V23.9122C47.6552 23.3209 48.1663 22.8834 49.168 22.8834C50.64 22.8834 52.7355 23.6402 54.6572 24.87L56.8958 20.0928C54.7697 18.4964 51.9484 17.5859 49.2396 17.5859C44.9463 17.5859 41.7878 20.1401 41.7878 24.7162V24.7872C41.7878 29.1268 44.7112 30.5576 48.3809 31.681C50.3333 32.3195 51.3657 32.6624 51.3657 33.502V33.5848C51.3657 34.3415 50.8546 34.7436 49.72 34.7436C47.7983 34.7436 45.4574 33.904 43.3313 32.2722L40.8984 36.8484C43.4744 39.0005 46.5614 40.0292 49.6791 40.0292Z" fill="#F5F5F7"/>
<path d="M59.9297 39.5533H66.4513V27.8941C66.4513 25.5528 67.6166 24.2758 69.201 24.2758C70.7445 24.2758 71.8076 25.5528 71.8076 27.8941V39.5533H78.3292V25.4701C78.3292 20.5746 75.9577 17.5475 72.012 17.5475C69.3646 17.5475 67.6575 19.1793 66.4513 20.9649V10.5H59.9297V39.5533Z" fill="#F5F5F7"/>
<path d="M81.8281 39.5533H88.3497V10.5H81.8281V39.5533Z" fill="#F5F5F7"/>
<path d="M92.1197 39.5533H98.6413V18.0205H92.1197V39.5533ZM91.9766 16.0813H98.7742V10.5H91.9766V16.0813Z" fill="#F5F5F7"/>
<path d="M109.65 40.0292C114.179 40.0292 117.235 37.5579 117.235 32.828V32.7452C117.235 28.5711 114.311 27.1048 110.642 25.9105C108.689 25.2365 107.626 24.8345 107.626 23.9949V23.9122C107.626 23.3209 108.148 22.8834 109.139 22.8834C110.611 22.8834 112.707 23.6402 114.628 24.87L116.857 20.0928C114.731 18.4964 111.909 17.5859 109.201 17.5859C104.907 17.5859 101.759 20.1401 101.759 24.7162V24.7872C101.759 29.1268 104.672 30.5576 108.342 31.681C110.294 32.3195 111.327 32.6624 111.327 33.502V33.5848C111.327 34.3415 110.816 34.7436 109.681 34.7436C107.759 34.7436 105.418 33.904 103.292 32.2722L100.859 36.8484C103.435 39.0005 106.533 40.0292 109.65 40.0292Z" fill="#F5F5F7"/>
<path d="M126.943 39.9879C128.763 39.9879 130.306 39.5149 131.472 38.7581V32.8221C130.685 33.2596 129.857 33.5434 128.998 33.5434C127.792 33.5434 127.219 32.9049 127.219 31.3913V24.1073H131.543V18.0176H127.219V12.5664H120.698V18.0176H118.5V24.1073H120.698V32.8694C120.698 38.0013 123.028 39.9879 126.943 39.9879Z" fill="#F5F5F7"/>
<mask id="mask2_3394_8289" style="mask-type:luminance" maskUnits="userSpaceOnUse" x="-172" y="-344" width="645" height="739">
<path d="M-171.469 -343.711H472.531V394.125H-171.469V-343.711Z" fill="white"/>
</mask>
<g mask="url(#mask2_3394_8289)">
<path fill-rule="evenodd" clip-rule="evenodd" d="M140.062 0.0859375V49.7472H161.007V0.0859375H140.062ZM154.649 7.31108H146.543V42.4526H154.649V7.31108Z" fill="#F5F5F7"/>
</g>
</g>
</g>
</svg>
