<svg m="0" class="style__NavbarLogoImage-sc-1ko6ekm-0 dFZaXz Image__ImageWrapper-sc-1ekegbw-0 iCfRNK" xmlns="http://www.w3.org/2000/svg" viewBox="0 0 474.66666 128" height="128" width="474.667"><defs><clipPath id="a"><path clip-rule="evenodd" d="M72.57 670.195h408.348c40.078 0 72.57-32.488 72.57-72.566s-32.492-72.57-72.57-72.57H72.57c-40.078 0-72.57 32.492-72.57 72.57 0 40.078 32.492 72.566 72.57 72.566z"></path></clipPath><clipPath id="b"><path d="M-4650-3150H8150v7200H-4650z"></path></clipPath><clipPath id="c"><path clip-rule="evenodd" d="M72.57 440.395h750.207c40.078 0 72.571-32.489 72.571-72.567 0-40.082-32.493-72.574-72.571-72.574H72.57C32.492 295.254 0 327.746 0 367.828c0 40.078 32.492 72.567 72.57 72.567z"></path></clipPath><clipPath id="d"><path d="M-4650-3150H8150v7200H-4650z"></path></clipPath><clipPath id="e"><path clip-rule="evenodd" d="M299.391 900h308.504c40.078 0 72.57-32.488 72.57-72.566 0-40.079-32.492-72.575-72.57-72.575H299.391c-40.078 0-72.571 32.496-72.571 72.575 0 40.078 32.493 72.566 72.571 72.566z"></path></clipPath><clipPath id="f"><path d="M-4650-3150H8150v7200H-4650z"></path></clipPath><clipPath id="g"><path clip-rule="evenodd" d="M299.391 210.594h308.504c40.078 0 72.57-32.492 72.57-72.571 0-40.078-32.492-72.57-72.57-72.57H299.391c-40.078 0-72.571 32.492-72.571 72.57 0 40.079 32.493 72.571 72.571 72.571z"></path></clipPath><clipPath id="h"><path d="M-4650-3150H8150v7200H-4650z"></path></clipPath><clipPath id="i"><path clip-rule="evenodd" d="M739.066 525.059c39.563 0 71.633 32.492 71.633 72.57 0 40.078-32.07 72.566-71.633 72.566-39.554 0-71.625-32.488-71.625-72.566s32.071-72.57 71.625-72.57z"></path></clipPath><clipPath id="j"><path d="M-4650-3150H8150v7200H-4650z"></path></clipPath><clipPath id="k"><path d="M1172.1 755.48h110.57v-45.382c21.3 22.855 39.48 38.32 54.55 46.386 16.06 8.407 36.21 12.61 60.45 12.61 54.06 0 96.82-24.203 128.27-72.61 34.73 48.407 81.75 72.61 141.05 72.61 107.8 0 161.69-67.063 161.69-201.184V264.375h-111.07v272.777c0 47.063-5.57 80.34-16.71 99.836-11.47 19.832-30.3 29.746-56.51 29.746-30.48 0-52.67-11.761-66.6-35.293-13.92-23.531-20.89-61.347-20.89-113.449V264.375h-111.06v271.266c0 87.398-24.57 131.093-73.73 131.093-31.12 0-53.81-11.933-68.06-35.796-14.25-23.868-21.38-61.512-21.38-112.946V264.375H1172.1zm1237.09-271.121h-344.98c2.97-40.175 15.82-72.14 38.55-95.91 22.74-23.437 51.9-35.156 87.48-35.156 27.68 0 50.58 6.699 68.71 20.086 17.79 13.394 38.05 38.164 60.79 74.32l93.9-53.226c-14.49-25.114-29.82-46.621-45.96-64.532-16.15-17.91-33.45-32.64-51.9-44.187-18.45-11.555-38.38-20.008-59.8-25.363-21.42-5.356-44.65-8.032-69.69-8.032-71.83 0-129.49 23.434-172.99 70.301-43.49 47.203-65.24 109.813-65.24 187.817 0 77.332 21.09 139.933 63.26 187.808 42.51 47.203 98.86 70.809 169.04 70.809 70.84 0 126.86-22.938 168.04-68.801 40.86-45.531 61.29-108.637 61.29-189.316zm-114.93 80.442c-15.72 64.094-53.69 96.137-113.91 96.137-13.71 0-26.59-2.227-38.64-6.672-12.04-4.457-23-10.868-32.87-19.231-9.86-8.367-18.31-18.43-25.34-30.176-7.02-11.754-12.38-25.101-16.06-40.058zm370.87-212.582l-215.67 392.836h128.51l146.74-277.41 136.89 277.41h125.07L2604.57 0h-126.55zm723.14 403.312H3500V266.418h-111.73v51.227c-45.82-43.528-95.09-65.286-147.83-65.286-66.58 0-121.63 24.438-165.13 73.317-43.18 49.883-64.77 112.152-64.77 186.804 0 73.317 21.59 134.415 64.77 183.293 43.18 48.879 97.23 73.321 162.17 73.321 56.02 0 106.29-23.438 150.79-70.309zm-282.22-248.566c0-46.656 12.52-84.649 37.58-113.981 25.71-29.66 58.11-44.492 97.2-44.492 41.75 0 75.49 14.332 101.21 42.992 25.72 29.664 38.58 67.325 38.58 112.981 0 45.656-12.86 83.32-38.58 112.98-25.72 28.996-59.12 43.493-100.21 43.493-38.75 0-71.15-14.665-97.21-43.993-25.71-29.66-38.57-66.32-38.57-109.98z"></path></clipPath><clipPath id="l"><path d="M-4650-3150H8150v7200H-4650z"></path></clipPath></defs><g clip-path="url(#a)" transform="matrix(.13333 0 0 -.13333 4 124)"><g clip-path="url(#b)"><path d="M-50 720.195h653.488V475.059H-50v245.136" fill="#e53960"></path></g></g><g clip-path="url(#c)" transform="matrix(.13333 0 0 -.13333 4 124)"><g clip-path="url(#d)"><path d="M-50 490.395h995.348V245.254H-50v245.141" fill="#5855af"></path></g></g><g clip-path="url(#e)" transform="matrix(.13333 0 0 -.13333 4 124)"><g clip-path="url(#f)"><path d="M176.82 950h553.645V704.859H176.82V950" fill="#f7b00c"></path></g></g><g clip-path="url(#g)" transform="matrix(.13333 0 0 -.13333 4 124)"><g clip-path="url(#h)"><path d="M176.82 260.594h553.645V15.454H176.82v245.14" fill="#f7b00c"></path></g></g><g clip-path="url(#i)" transform="matrix(.13333 0 0 -.13333 4 124)"><g clip-path="url(#j)"><path d="M617.441 720.195h243.258V475.059H617.441v245.136" fill="#80b6d5"></path></g></g><g clip-path="url(#k)" transform="matrix(.13333 0 0 -.13333 4 124)"><g clip-path="url(#l)"><path d="M1122.1 819.094H3550V-50H1122.1v869.094" fill="#100f0d"></path></g></g></svg>